<?xml version="1.0" encoding="UTF-8"?>
<svg xmlns="http://www.w3.org/2000/svg" xmlns:xlink="http://www.w3.org/1999/xlink" viewBox="0 0 32 32" width="32px" height="32px">
<g id="surface16731839">
<path style=" stroke:none;fill-rule:nonzero;fill:rgb(100%,100%,100%);fill-opacity:1;" d="M 16 32 C 7.164062 32 0 24.835938 0 16 C 0 7.164062 7.164062 0 16 0 C 24.835938 0 32 7.164062 32 16 C 32 24.835938 24.835938 32 16 32 Z M 16 32 "/>
<path style=" stroke:none;fill-rule:nonzero;fill:rgb(26.666668%,33.725491%,98.431373%);fill-opacity:1;" d="M 12.375 7.199219 C 9.535156 7.199219 7.199219 9.53125 7.199219 12.375 L 7.199219 19.625 C 7.199219 22.464844 9.53125 24.800781 12.375 24.800781 L 19.625 24.800781 C 22.464844 24.800781 24.800781 22.46875 24.800781 19.625 L 24.800781 12.375 C 24.800781 9.535156 22.46875 7.199219 19.625 7.199219 Z M 12.375 8.800781 L 19.625 8.800781 C 21.601562 8.800781 23.199219 10.398438 23.199219 12.375 L 23.199219 19.625 C 23.199219 21.601562 21.601562 23.199219 19.625 23.199219 L 12.375 23.199219 C 10.398438 23.199219 8.800781 21.601562 8.800781 19.625 L 8.800781 12.375 C 8.800781 10.398438 10.398438 8.800781 12.375 8.800781 Z M 20.726562 10.550781 C 20.320312 10.550781 20 10.871094 20 11.273438 C 20 11.679688 20.320312 12 20.726562 12 C 21.128906 12 21.449219 11.679688 21.449219 11.273438 C 21.449219 10.871094 21.128906 10.550781 20.726562 10.550781 Z M 16 11.199219 C 13.359375 11.199219 11.199219 13.359375 11.199219 16 C 11.199219 18.640625 13.359375 20.800781 16 20.800781 C 18.640625 20.800781 20.800781 18.640625 20.800781 16 C 20.800781 13.359375 18.640625 11.199219 16 11.199219 Z M 16 12.800781 C 17.777344 12.800781 19.199219 14.222656 19.199219 16 C 19.199219 17.777344 17.777344 19.199219 16 19.199219 C 14.222656 19.199219 12.800781 17.777344 12.800781 16 C 12.800781 14.222656 14.222656 12.800781 16 12.800781 Z M 16 12.800781 "/>
</g>
</svg>
